<svg xmlns="http://www.w3.org/2000/svg" xmlns:xlink="http://www.w3.org/1999/xlink" version="1.1" width="1000" height="1000" viewBox="0 0 1000 1000" xml:space="preserve">
<desc>Created with Fabric.js 3.5.0</desc>
<defs>
</defs>
<rect x="0" y="0" width="100%" height="100%" fill="rgba(255,255,255,0)"/>
<g transform="matrix(1.2367 0 0 1.2424 500.0306 500.0199)" id="99494">
<g style="" vector-effect="non-scaling-stroke">
		<g transform="matrix(0.1333 0 0 -0.1333 -3.1928 4.737)">
<path style="stroke: none; stroke-width: 1; stroke-dasharray: none; stroke-linecap: butt; stroke-dashoffset: 0; stroke-linejoin: miter; stroke-miterlimit: 4; is-custom-font: none; font-file-url: none; fill: rgb(0,0,0); fill-rule: nonzero; opacity: 1;" transform=" translate(-4876.7917, -4863.7362)" d="M 3240 7800 c -309 -37 -626 -188 -862 -409 c -176 -165 -323 -399 -396 -631 c -60 -193 -57 -92 -57 -1870 c 0 -1541 1 -1640 18 -1720 c 63 -295 203 -561 405 -772 c 245 -255 561 -420 897 -468 c 58 -8 528 -10 1700 -8 c 1796 4 1646 -2 1860 69 c 546 180 942 660 1015 1229 c 7 59 10 578 8 1685 c -4 1597 -4 1600 -25 1686 c -153 614 -599 1050 -1218 1191 l -100 22 l -1590 2 c -875 1 -1619 -2 -1655 -6 z m 2819 -1460 c 160 -118 319 -286 439 -467 c 65 -98 131 -228 135 -265 c 2 -20 -3 -23 -43 -26 l -45 -3 l -47 96 c -125 251 -314 478 -516 620 c -39 28 -71 53 -72 56 c 0 3 11 11 25 17 c 14 6 25 16 25 22 c 0 18 16 10 99 -50 z m -2639 -488 c 351 -89 663 -302 775 -527 c 79 -161 49 -299 -96 -429 c -60 -54 -115 -80 -219 -106 c -114 -28 -179 -32 -274 -20 l -86 12 l -29 -31 c -38 -40 -81 -42 -110 -5 c -12 15 -21 38 -21 53 c 0 36 -8 45 -67 75 c -56 28 -153 102 -191 145 c -100 112 -81 177 72 251 c 45 22 89 40 97 40 c 8 0 30 5 50 10 l 36 10 l 6 73 c 12 134 43 197 84 171 c 28 -17 46 -63 57 -145 l 10 -76 l 80 -7 c 206 -16 326 -78 326 -169 c 0 -34 -7 -46 -44 -83 c -43 -44 -65 -51 -113 -38 c -30 8 -29 30 2 50 c 53 34 23 54 -120 80 c -44 8 -93 14 -109 14 l -29 0 l 8 -137 c 4 -82 11 -141 18 -145 c 24 -15 175 -20 252 -8 c 248 37 347 162 271 340 c -109 252 -512 479 -918 515 c -91 8 -216 -3 -180 -16 c 12 -5 22 -13 22 -18 c 0 -18 -44 -41 -78 -41 c -68 0 -89 33 -56 90 c 22 37 59 57 146 80 c 62 17 95 20 213 16 c 91 -4 167 -12 215 -24 z m 1110 -87 c 19 -14 39 -25 46 -25 c 20 0 64 -60 64 -87 c 0 -43 -30 -92 -93 -148 c -72 -65 -143 -95 -226 -95 c -40 0 -63 -5 -71 -15 c -7 -8 -18 -15 -26 -15 c -18 0 -44 40 -44 70 c 0 14 -7 34 -15 44 c -22 30 -18 95 9 139 c 78 127 267 197 356 132 z m 2139 -302 c 6 -20 16 -81 23 -135 l 12 -97 l 130 -3 l 130 -3 l 9 -32 c 5 -17 7 -43 3 -57 l -6 -25 l -133 -3 l -132 -3 l -3 -119 c -1 -70 -7 -125 -14 -133 c -7 -9 -27 -13 -52 -11 l -41 3 l 4 133 l 3 132 l -126 0 l -126 0 l -11 28 c -6 16 -7 39 -2 57 l 9 30 l 123 3 l 124 3 l -7 82 c -3 45 -9 106 -12 135 l -7 52 l 46 0 c 45 0 46 -1 56 -37 z m -1431 -58 c 93 -78 134 -273 91 -429 c -15 -54 -50 -86 -93 -86 c -40 0 -72 35 -141 155 l -42 75 l -7 -46 c -3 -26 -6 -68 -6 -94 c 0 -88 -29 -131 -79 -115 c -34 10 -44 57 -38 168 c 9 157 53 286 101 295 c 24 5 83 -62 146 -164 c 28 -46 54 -84 57 -84 c 8 0 -6 77 -33 176 c -42 161 -28 210 44 149 z m 718 -51 c 5 -20 -5 -51 -44 -128 c -28 -55 -53 -112 -56 -125 c -5 -26 -6 -27 49 44 c 127 165 221 219 280 161 c 29 -29 39 -78 33 -165 c -11 -147 -127 -276 -262 -291 c -47 -5 -49 -6 -68 -55 c -24 -61 -64 -212 -73 -280 c -11 -82 -34 -94 -83 -46 c -63 64 -59 192 14 385 c 29 79 33 99 24 117 c -7 13 -11 51 -8 93 c 3 59 10 87 40 147 c 33 66 118 169 139 169 c 5 0 12 -12 15 -26 z m -1072 -13 c 35 -20 36 -44 6 -75 c -23 -23 -90 -34 -220 -35 c -52 -1 -102 -6 -110 -11 c -11 -7 -6 -10 20 -10 c 58 0 221 -30 256 -46 c 83 -40 86 -188 6 -256 c -71 -60 -198 -71 -292 -26 c -125 60 -150 120 -81 189 l 39 39 l -27 6 c -50 12 -71 32 -71 69 c 0 83 88 155 215 175 c 87 13 222 4 259 -19 z m 870 -12 c 25 -30 35 -82 17 -93 c -5 -3 -49 -9 -97 -12 c -89 -7 -124 -16 -124 -34 c 0 -5 30 -10 68 -12 l 67 -3 l 3 -40 c 5 -54 -14 -65 -105 -65 c -70 0 -74 -1 -83 -26 c -6 -14 -10 -29 -10 -33 c 0 -4 43 -1 95 8 c 89 14 95 14 115 -4 c 43 -39 18 -86 -73 -139 c -104 -61 -187 -65 -238 -10 c -20 21 -24 35 -22 82 c 1 57 9 177 11 198 c 1 6 13 16 26 22 c 14 6 30 20 36 32 c 9 17 7 22 -12 29 c -13 5 -32 18 -42 30 c -16 18 -17 25 -8 46 c 6 14 17 25 24 26 c 7 0 40 6 73 14 c 33 7 103 14 157 14 c 96 1 96 1 122 -30 z m -1389 -2 c 21 -33 34 -148 35 -303 c 0 -118 -2 -134 -21 -158 c -36 -45 -92 -29 -109 32 c -25 90 0 393 36 433 c 23 25 40 24 59 -4 z m -1367 -948 c 53 -18 76 -68 80 -175 l 4 -92 l 45 32 c 43 30 49 31 141 31 c 81 0 104 -4 138 -22 c 51 -27 110 -94 126 -142 c 7 -22 13 -130 15 -279 c 5 -296 6 -292 -92 -292 l -65 0 l 0 219 c 0 223 -5 260 -42 313 c -44 64 -169 74 -231 18 l -32 -28 l -5 -240 c -6 -287 -4 -282 -107 -282 l -63 0 l 0 457 c 0 411 2 458 17 475 c 19 21 29 22 71 7 z m 1672 -98 l 0 -110 l 53 -3 l 52 -3 l 3 -54 c 5 -92 0 -101 -58 -101 l -50 0 l 0 -268 c 0 -314 -1 -318 -69 -288 c -74 34 -76 40 -79 314 l -3 242 l -25 0 c -23 0 -24 3 -24 64 c 0 62 14 96 41 96 c 5 0 9 41 9 91 c 0 122 5 129 85 129 l 65 0 l 0 -109 z m 888 -3 l 3 -107 l 52 -3 l 52 -3 l 0 -75 l 0 -75 l -52 -3 l -53 -3 l 0 -262 c 0 -144 -3 -272 -6 -285 c -6 -19 -11 -22 -33 -17 c -39 10 -70 32 -91 68 c -18 29 -20 52 -20 265 l 0 232 l -25 0 c -24 0 -25 3 -25 61 c 0 67 14 104 36 95 c 11 -4 14 11 14 87 c 0 140 0 138 79 135 l 66 -3 l 3 -107 z m -1384 -124 c 81 -32 158 -106 195 -183 c 21 -47 25 -71 26 -146 c 0 -83 -3 -96 -36 -165 c -63 -132 -159 -207 -297 -231 c -156 -28 -321 62 -392 213 c -26 55 -30 74 -30 148 c 0 77 4 93 34 155 c 52 110 145 191 256 226 c 14 4 60 8 102 8 c 62 1 91 -4 142 -25 z m 991 3 c 57 -32 105 -107 105 -163 l 0 -44 l -75 0 c -66 0 -75 2 -75 18 c 0 45 -86 75 -124 43 c -39 -33 2 -79 98 -110 c 151 -49 207 -125 190 -260 c -11 -92 -51 -154 -122 -190 c -141 -72 -320 5 -352 152 c -10 44 -11 63 -2 82 c 11 24 16 26 74 23 c 59 -3 62 -4 70 -33 c 14 -53 40 -77 91 -82 c 77 -9 117 32 87 88 c -10 19 -66 48 -144 76 c -137 48 -190 164 -132 288 c 24 53 70 99 121 121 c 49 22 144 17 190 -9 z m 1031 -6 c 34 -16 64 -36 67 -45 c 10 -27 26 -18 29 17 l 3 32 l 68 3 l 67 3 l 0 -361 l 0 -361 l -67 3 l -68 3 l -3 43 l -3 43 l -39 -35 c -22 -20 -54 -42 -72 -49 c -157 -66 -370 19 -448 178 c -22 45 -25 62 -25 170 c 1 112 3 124 30 180 c 33 66 109 149 152 166 c 80 33 104 38 173 39 c 62 0 85 -5 136 -29 z m 694 -55 l 0 -84 l -43 -6 c -56 -9 -102 -54 -116 -116 c -6 -25 -11 -115 -11 -200 c 0 -134 -3 -159 -19 -186 c -17 -28 -73 -64 -100 -64 c -8 0 -11 105 -11 360 l 0 360 l 60 0 c 53 0 60 -2 60 -20 c 0 -22 15 -27 26 -9 c 11 18 87 49 122 49 l 32 0 l 0 -84 z m -4130 -1697 c 84 -46 180 -115 180 -129 c 0 -19 -66 -9 -125 19 c -64 30 -165 114 -165 137 c 0 23 31 16 110 -27 z" stroke-linecap="round"/>
</g>
		<g transform="matrix(0.1333 0 0 -0.1333 -222.9972 -24.6074)">
<path style="stroke: none; stroke-width: 1; stroke-dasharray: none; stroke-linecap: butt; stroke-dashoffset: 0; stroke-linejoin: miter; stroke-miterlimit: 4; is-custom-font: none; font-file-url: none; fill: rgb(0,0,0); fill-rule: nonzero; opacity: 1;" transform=" translate(-3227.5522, -5084.5269)" d="M 3227 5184 c -48 -8 -97 -19 -108 -24 c -19 -11 -19 -11 3 -39 c 13 -15 41 -42 63 -58 c 38 -30 147 -93 159 -93 c 3 0 6 52 6 115 c 0 103 -2 115 -17 114 c -10 -1 -58 -7 -106 -15 z" stroke-linecap="round"/>
</g>
		<g transform="matrix(0.1333 0 0 -0.1333 -82.1495 -96.9254)">
<path style="stroke: none; stroke-width: 1; stroke-dasharray: none; stroke-linecap: butt; stroke-dashoffset: 0; stroke-linejoin: miter; stroke-miterlimit: 4; is-custom-font: none; font-file-url: none; fill: rgb(0,0,0); fill-rule: nonzero; opacity: 1;" transform=" translate(-4283.8898, -5626.9302)" d="M 4295 5652 c -38 -23 -58 -47 -53 -64 c 2 -8 21 7 47 35 c 49 52 49 55 6 29 z" stroke-linecap="round"/>
</g>
		<g transform="matrix(0.1333 0 0 -0.1333 -61.4304 -91.9783)">
<path style="stroke: none; stroke-width: 1; stroke-dasharray: none; stroke-linecap: butt; stroke-dashoffset: 0; stroke-linejoin: miter; stroke-miterlimit: 4; is-custom-font: none; font-file-url: none; fill: rgb(0,0,0); fill-rule: nonzero; opacity: 1;" transform=" translate(-4439.2994, -5589.8202)" d="M 4444 5631 c -23 -16 -58 -46 -79 -68 l -37 -38 l 47 -3 c 54 -4 148 36 166 69 c 34 65 -28 91 -97 40 z" stroke-linecap="round"/>
</g>
		<g transform="matrix(0.1333 0 0 -0.1333 156.0149 -27.9136)">
<path style="stroke: none; stroke-width: 1; stroke-dasharray: none; stroke-linecap: butt; stroke-dashoffset: 0; stroke-linejoin: miter; stroke-miterlimit: 4; is-custom-font: none; font-file-url: none; fill: rgb(0,0,0); fill-rule: nonzero; opacity: 1;" transform=" translate(-6070.1319, -5109.3264)" d="M 6078 5143 c -54 -68 -88 -118 -88 -128 c 0 -28 111 43 140 89 c 20 33 28 106 11 106 c -5 0 -33 -30 -63 -67 z" stroke-linecap="round"/>
</g>
		<g transform="matrix(0.1333 0 0 -0.1333 -15.8127 -19.3063)">
<path style="stroke: none; stroke-width: 1; stroke-dasharray: none; stroke-linecap: butt; stroke-dashoffset: 0; stroke-linejoin: miter; stroke-miterlimit: 4; is-custom-font: none; font-file-url: none; fill: rgb(0,0,0); fill-rule: nonzero; opacity: 1;" transform=" translate(-4781.4084, -5044.7905)" d="M 4768 5045 c -3 -14 -2 -25 2 -25 c 14 0 32 29 25 40 c -11 17 -22 11 -27 -15 z" stroke-linecap="round"/>
</g>
		<g transform="matrix(0.1333 0 0 -0.1333 -45.0021 -14.71)">
<path style="stroke: none; stroke-width: 1; stroke-dasharray: none; stroke-linecap: butt; stroke-dashoffset: 0; stroke-linejoin: miter; stroke-miterlimit: 4; is-custom-font: none; font-file-url: none; fill: rgb(0,0,0); fill-rule: nonzero; opacity: 1;" transform=" translate(-4562.5, -5010.3198)" d="M 4500 5022 c 0 -15 49 -32 88 -31 l 37 1 l -40 19 c -42 19 -85 25 -85 11 z" stroke-linecap="round"/>
</g>
		<g transform="matrix(0.1333 0 0 -0.1333 -117.6227 145.4427)">
<path style="stroke: none; stroke-width: 1; stroke-dasharray: none; stroke-linecap: butt; stroke-dashoffset: 0; stroke-linejoin: miter; stroke-miterlimit: 4; is-custom-font: none; font-file-url: none; fill: rgb(0,0,0); fill-rule: nonzero; opacity: 1;" transform=" translate(-4017.8852, -3809.125)" d="M 3938 4014 c -111 -34 -163 -133 -132 -250 c 28 -107 114 -174 224 -174 c 93 0 176 53 201 127 c 6 20 9 63 7 98 c -8 98 -62 165 -162 199 c -56 19 -76 19 -138 0 z" stroke-linecap="round"/>
</g>
		<g transform="matrix(0.1333 0 0 -0.1333 155.2117 145.3786)">
<path style="stroke: none; stroke-width: 1; stroke-dasharray: none; stroke-linecap: butt; stroke-dashoffset: 0; stroke-linejoin: miter; stroke-miterlimit: 4; is-custom-font: none; font-file-url: none; fill: rgb(0,0,0); fill-rule: nonzero; opacity: 1;" transform=" translate(-6064.1436, -3809.6056)" d="M 6010 4021 c -141 -43 -208 -180 -150 -305 c 43 -90 124 -133 233 -123 c 189 17 263 241 125 374 c -53 50 -143 73 -208 54 z" stroke-linecap="round"/>
</g>
</g>
</g>
</svg>